<svg width="129" height="23" viewBox="0 0 129 23" fill="none" xmlns="http://www.w3.org/2000/svg">
<path d="M0.00200012 18H9.88V15.272H3.258V1.698H0.00200012V18ZM15.8729 18.308C17.5449 18.308 18.7329 17.494 19.7889 16.24H19.8769L20.1189 18H22.7589V5.68H19.5249V13.996C18.6889 15.096 18.0289 15.536 17.0169 15.536C15.8289 15.536 15.3009 14.854 15.3009 12.962V5.68H12.0669V13.38C12.0669 16.46 13.2109 18.308 15.8729 18.308ZM30.5408 18.308C31.8168 18.308 33.0488 17.604 33.9508 16.724H34.0388L34.2808 18H36.8987V0.443999H33.6868V4.778L33.7968 6.714C32.9168 5.9 32.0588 5.372 30.6728 5.372C28.0108 5.372 25.5028 7.836 25.5028 11.84C25.5028 15.888 27.4828 18.308 30.5408 18.308ZM31.3768 15.646C29.7488 15.646 28.8248 14.37 28.8248 11.818C28.8248 9.354 29.9908 8.034 31.3768 8.034C32.1468 8.034 32.9388 8.276 33.6868 8.958V14.37C32.9608 15.294 32.2348 15.646 31.3768 15.646ZM41.443 22.95C44.193 22.95 45.513 21.278 46.591 18.374L50.969 5.68H47.867L46.173 11.4C45.887 12.544 45.579 13.732 45.293 14.876H45.183C44.831 13.688 44.523 12.5 44.149 11.4L42.191 5.68H38.935L43.731 17.78L43.511 18.506C43.159 19.584 42.455 20.376 41.201 20.376C40.915 20.376 40.563 20.288 40.343 20.222L39.749 22.708C40.233 22.862 40.717 22.95 41.443 22.95Z" fill="white"/>
<path d="M58.2461 18H61.5021V12.214H63.6801C67.1781 12.214 69.9721 10.542 69.9721 6.824C69.9721 2.974 67.2001 1.698 63.5921 1.698H58.2461V18ZM61.5021 9.64V4.294H63.3501C65.5941 4.294 66.7821 4.932 66.7821 6.824C66.7821 8.694 65.7041 9.64 63.4601 9.64H61.5021ZM72.656 18H75.89V5.68H72.656V18ZM74.284 3.7C75.384 3.7 76.154 2.996 76.154 1.918C76.154 0.861999 75.384 0.157999 74.284 0.157999C73.162 0.157999 72.392 0.861999 72.392 1.918C72.392 2.996 73.162 3.7 74.284 3.7ZM82.3736 18.308C83.1436 18.308 83.6716 18.176 84.0456 18.022L83.6496 15.624C83.4296 15.668 83.3416 15.668 83.2096 15.668C82.9016 15.668 82.5716 15.426 82.5716 14.678V0.443999H79.3376V14.546C79.3376 16.834 80.1296 18.308 82.3736 18.308ZM89.3131 18.308C90.7211 18.308 91.9531 17.604 93.0311 16.68H93.1191L93.3391 18H95.9791V10.806C95.9791 7.242 94.3731 5.372 91.2491 5.372C89.3131 5.372 87.5531 6.098 86.1011 7L87.2671 9.134C88.4111 8.474 89.5111 7.968 90.6551 7.968C92.1731 7.968 92.7011 8.892 92.7671 10.102C87.7951 10.63 85.6611 12.016 85.6611 14.656C85.6611 16.746 87.1131 18.308 89.3131 18.308ZM90.3691 15.778C89.4231 15.778 88.7411 15.36 88.7411 14.392C88.7411 13.292 89.7531 12.456 92.7671 12.082V14.568C91.9751 15.338 91.2931 15.778 90.3691 15.778ZM103.377 18.308C104.455 18.308 105.313 18.066 105.973 17.846L105.445 15.492C105.115 15.624 104.631 15.756 104.235 15.756C103.135 15.756 102.563 15.096 102.563 13.688V8.232H105.599V5.68H102.563V2.358H99.8789L99.5049 5.68L97.5909 5.834V8.232H99.3289V13.688C99.3289 16.438 100.451 18.308 103.377 18.308ZM113.065 18.308C114.583 18.308 116.145 17.78 117.355 16.944L116.255 14.964C115.375 15.514 114.495 15.822 113.483 15.822C111.657 15.822 110.337 14.766 110.073 12.742H117.663C117.751 12.456 117.817 11.862 117.817 11.246C117.817 7.858 116.057 5.372 112.669 5.372C109.743 5.372 106.927 7.858 106.927 11.84C106.927 15.91 109.611 18.308 113.065 18.308ZM110.029 10.586C110.271 8.804 111.415 7.88 112.713 7.88C114.297 7.88 115.045 8.936 115.045 10.586H110.029ZM124 18.308C127.212 18.308 128.906 16.57 128.906 14.414C128.906 12.126 127.102 11.312 125.474 10.696C124.176 10.212 123.032 9.882 123.032 8.98C123.032 8.276 123.56 7.792 124.682 7.792C125.584 7.792 126.442 8.21 127.322 8.848L128.774 6.89C127.762 6.12 126.376 5.372 124.594 5.372C121.778 5.372 119.996 6.934 119.996 9.134C119.996 11.202 121.734 12.148 123.296 12.742C124.594 13.248 125.87 13.666 125.87 14.59C125.87 15.36 125.32 15.888 124.088 15.888C122.944 15.888 121.888 15.404 120.788 14.546L119.314 16.57C120.546 17.582 122.35 18.308 124 18.308Z" fill="#1D2627"/>
</svg>
